# High-Detail Stylized Mountain with Slit Cave OBJ File
mtllib mountain.mtl

# Vertices
v 41.1554 0.0000 -0.7538
v 40.1194 0.0000 8.2708
v 39.2363 0.0000 16.1318
v 34.3111 0.0000 24.0503
v 29.5832 0.0000 29.0524
v 21.9550 0.0000 34.6341
v 14.9951 0.0000 36.7068
v 6.7821 0.0000 37.8264
v 0.0918 0.0000 37.5591
v -7.2334 0.0000 37.6862
v -14.2887 0.0000 36.2507
v -22.6420 0.0000 33.1658
v -29.7556 0.0000 28.4710
v -34.6956 0.0000 24.4138
v -39.4414 0.0000 17.1839
v -40.4541 0.0000 7.7953
v -38.4724 0.0000 0.7748
v -38.1477 0.0000 -6.8354
v -36.6722 0.0000 -14.3712
v -32.8677 0.0000 -21.0842
v -27.0635 0.0000 -27.3371
v -21.7176 0.0000 -32.9158
v -15.7906 0.0000 -35.6015
v -8.0270 0.0000 -40.9742
v -0.7125 0.0000 -42.7942
v 8.5144 0.0000 -41.7808
v 15.8849 0.0000 -37.5573
v 22.0660 0.0000 -34.1812
v 27.3575 0.0000 -26.4469
v 30.5620 0.0000 -21.0277
v 34.7807 0.0000 -13.7512
v 38.4717 0.0000 -7.8742
v 36.2703 0.1500 -0.3695
v 36.9473 0.1500 7.6824
v 34.9358 2.1789 15.3184
v 32.3432 2.1656 20.4662
v 26.5586 2.1275 27.2840
v 20.9724 2.2873 30.6065
v 14.0621 2.3813 34.9474
v 6.4683 1.7432 35.6445
v 1.0184 2.4709 35.5995
v -7.1534 2.2801 34.0313
v -14.2321 1.7153 33.0026
v -21.7203 2.2628 30.5541
v -27.0591 1.7144 27.9823
v -33.4589 1.9378 22.7790
v -36.2259 1.7781 13.9487
v -38.0911 2.2649 7.2401
v -37.4159 1.8998 0.5936
v -34.9058 2.4570 -6.0953
v -33.7903 1.7306 -13.6184
v -31.1017 1.8984 -20.0684
v -26.2745 1.9230 -25.0234
v -21.3108 1.9434 -30.8225
v -14.2849 2.0120 -34.1374
v -7.9899 1.7600 -36.5970
v -0.6236 2.2809 -39.8952
v 8.6333 2.1387 -39.0188
v 15.6002 2.2481 -35.7302
v 21.5622 1.8748 -31.4650
v 24.6407 2.1243 -25.4670
v 28.8416 2.4499 -19.7711
v 33.6088 2.3566 -12.8416
v 35.2002 0.1500 -7.3049
v 35.2918 3.2794 0.6341
v 35.5746 2.5000 6.9609
v 31.9722 3.0406 14.3096
v 28.9767 3.5664 19.1784
v 24.3485 3.3897 24.5438
v 19.3711 3.0365 29.0845
v 13.7538 3.4386 32.1126
v 5.5363 3.1689 32.5762
v 0.9479 3.0425 31.6127
v -5.6752 3.0926 31.6022
v -12.3498 2.9415 31.0885
v -19.7153 2.9106 28.9140
v -26.7079 3.2261 25.2446
v -30.1420 2.8868 21.1729
v -33.6954 2.8969 14.1615
v -33.6192 2.8953 5.7558
v -33.4219 3.1929 -0.4107
v -32.7562 3.2051 -5.5946
v -29.6044 3.5157 -13.1431
v -27.6347 3.2352 -18.7768
v -24.1014 3.3340 -23.0420
v -18.7107 3.2206 -29.1779
v -12.8838 2.9939 -32.3353
v -6.4752 3.6584 -34.9163
v -0.8220 2.9819 -36.5923
v 6.6553 3.5283 -35.5863
v 14.8160 3.2406 -33.8116
v 19.6514 3.2573 -28.4644
v 23.0923 3.1532 -23.6282
v 27.1155 3.6324 -17.8434
v 30.2964 3.0217 -12.9319
v 33.6185 2.5000 -6.1399
v 33.2799 5.2000 -0.1281
v 33.7309 4.2000 5.4592
v 29.8314 4.8410 12.0264
v 26.1693 4.2161 17.2727
v 21.2931 4.7910 22.5221
v 17.7020 4.5298 26.2092
v 12.8140 4.8691 28.9674
v 6.1495 4.9672 30.3484
v -0.0849 4.3336 29.8517
v -6.2118 4.2276 27.3020
v -10.7980 4.6966 26.8541
v -17.5299 4.2599 25.5313
v -24.2138 4.5879 23.8158
v -28.0865 4.9679 19.1383
v -31.1929 4.4356 13.4796
v -30.4686 4.6771 7.0018
v -31.0570 4.7919 -0.5615
v -28.7423 4.3268 -5.0265
v -27.5454 4.3173 -11.8431
v -24.0607 4.4316 -16.6711
v -21.6342 4.9061 -21.9251
v -17.6230 4.9908 -24.7544
v -11.6752 4.8251 -28.3798
v -5.7007 4.7877 -31.6453
v -0.6504 4.2599 -33.0316
v 6.8894 4.4945 -32.2944
v 12.8900 4.8550 -29.5255
v 16.2645 4.5758 -25.8189
v 20.2217 4.2297 -21.1585
v 22.7749 4.3373 -15.9446
v 27.8151 4.9532 -10.9829
v 32.2250 4.2000 -5.4227
v 29.0780 7.1251 0.2246
v 29.0200 7.2138 5.1746
v 26.5243 7.0861 10.7154
v 23.8007 7.5769 16.0499
v 19.2517 7.1568 20.0640
v 16.0699 7.2391 24.0202
v 10.5033 7.6892 25.8721
v 5.0169 7.3282 26.5829
v -0.6546 7.1004 26.2013
v -5.0866 7.5433 25.1658
v -9.1591 7.1272 23.6136
v -14.9367 7.1967 22.5318
v -20.0164 7.4266 20.9210
v -25.4588 7.0989 16.7207
v -27.4226 7.6665 10.4881
v -28.5409 7.3644 5.0567
v -27.4138 7.7211 -0.7572
v -26.3847 7.3493 -5.7851
v -24.7991 7.1966 -9.4591
v -23.5006 7.6229 -14.8213
v -18.1876 7.1334 -18.9871
v -14.7986 7.6169 -21.8237
v -10.6545 7.1617 -26.5360
v -6.2841 7.1483 -27.3699
v 0.8659 7.3120 -30.4411
v 5.5763 6.9772 -30.7899
v 12.3727 7.5621 -27.8171
v 16.0943 7.3864 -23.1216
v 17.9826 7.5513 -18.7491
v 20.9555 7.5803 -14.7308
v 24.4754 7.7273 -9.8250
v 26.1877 7.0073 -5.0164
v 24.5851 10.7503 0.0992
v 25.2244 10.7511 4.7580
v 23.0522 10.5191 9.6607
v 19.8727 10.7786 14.0001
v 17.0717 10.5105 17.2248
v 14.5851 10.6958 20.6184
v 8.8128 10.2514 23.1321
v 3.9012 10.7279 22.2924
v 0.2569 10.3025 22.4583
v -3.9677 10.9554 21.2276
v -9.2294 10.6661 20.6274
v -13.5694 10.7818 21.0515
v -18.6106 10.7845 17.9779
v -22.2493 10.3180 14.6695
v -23.6624 10.6879 10.5128
v -23.3368 10.8162 4.7178
v -23.5865 10.3767 0.0653
v -21.9125 10.5157 -4.8958
v -21.2692 10.2820 -8.0809
v -18.8404 10.6492 -12.6012
v -16.2275 10.4492 -16.4703
v -12.3306 10.5595 -19.6589
v -9.2729 10.2130 -21.1920
v -5.4323 10.3338 -23.7977
v -0.4015 10.6485 -27.1931
v 4.5659 10.1789 -26.0279
v 10.5786 10.2480 -24.5666
v 13.2499 10.6076 -20.9175
v 14.9717 10.9035 -14.9908
v 18.2367 10.5678 -12.7394
v 20.7528 10.3310 -8.8316
v 23.0436 10.1913 -3.9447
v 22.2943 12.7361 -0.0009
v 22.4732 12.7562 4.8823
v 19.9041 13.4246 7.7655
v 18.7715 13.2394 12.3368
v 16.0577 12.8936 15.1363
v 11.6014 12.8584 18.2608
v 7.5040 12.9156 18.5322
v 3.3595 13.3127 18.9214
v 0.2614 12.8454 18.8665
v -3.5843 13.2003 17.7077
v -7.2861 12.9873 17.9153
v -11.4322 12.7149 17.1104
v -15.8432 13.0306 16.2589
v -19.8409 12.9036 14.0109
v -21.1113 13.2743 9.2698
v -20.3417 12.8471 3.7404
v -19.2722 13.2632 0.4011
v -18.2664 13.3519 -3.7820
v -17.3627 13.1898 -7.4353
v -17.1202 13.2456 -10.9343
v -13.7884 13.2556 -13.6465
v -11.7060 12.8910 -16.7505
v -8.2701 12.8021 -19.0053
v -4.6421 12.6824 -21.8954
v -0.5943 13.0907 -21.9630
v 4.2592 13.2947 -22.4201
v 9.4720 13.0624 -21.2256
v 11.8490 13.1455 -17.8710
v 13.3519 12.8837 -13.6315
v 14.5890 13.4217 -9.5999
v 17.6516 13.3640 -7.0666
v 20.2550 13.1668 -3.5803
v 17.7096 15.5128 -0.1538
v 18.8823 15.1270 3.8156
v 16.8042 15.1976 6.9467
v 15.3554 15.6390 10.2074
v 12.5933 14.9307 13.1331
v 10.9776 15.1133 15.4250
v 7.0400 15.0045 15.9052
v 3.0541 15.4488 16.1104
v 0.1050 15.5049 14.6002
v -3.0780 15.5747 15.1248
v -6.1199 15.2939 13.6870
v -9.4049 15.4441 13.8697
v -14.0121 15.3479 14.8410
v -17.3853 15.0682 11.1325
v -18.8579 15.3640 8.0945
v -16.9574 15.2013 3.7908
v -15.7541 15.5386 0.1699
v -15.5024 15.2989 -2.9095
v -14.6805 15.1072 -5.7398
v -13.0383 15.2648 -9.1914
v -11.6211 15.1156 -12.3164
v -9.4452 15.1911 -15.0337
v -6.1599 15.0019 -15.8600
v -3.3527 14.9905 -18.3169
v 0.5449 15.1071 -19.0332
v 4.0845 15.2545 -19.6817
v 7.0028 15.3607 -17.5581
v 9.4648 15.0571 -13.7620
v 10.4403 15.0258 -10.4775
v 11.5673 15.0925 -7.4689
v 13.6075 15.3779 -5.2477
v 17.0819 15.2746 -3.3537
v 15.3613 18.7448 -0.1893
v 16.7780 18.5985 3.4914
v 13.8502 18.5104 5.8868
v 13.0058 18.5050 9.1532
v 11.1140 18.7087 10.9118
v 7.4759 18.9033 11.9404
v 6.1343 18.4012 13.7559
v 2.4402 18.4257 13.7467
v 0.0733 18.9300 11.9117
v -2.3559 18.7898 12.0247
v -5.1587 18.9708 11.6328
v -8.4774 18.5266 12.0678
v -11.1646 18.8719 11.1948
v -13.9326 18.8705 8.9475
v -14.9602 18.6646 5.8869
v -15.2050 19.0644 2.5942
v -14.2165 19.0055 -0.0195
v -13.2964 18.8500 -2.7602
v -12.2962 18.5066 -5.2992
v -11.4588 18.3984 -7.5650
v -10.5312 18.6022 -10.3399
v -6.9512 19.0171 -11.0033
v -6.0129 18.5746 -13.7070
v -3.1640 18.3315 -15.1345
v -0.4269 19.0606 -17.4911
v 3.7312 18.9229 -16.8779
v 5.9573 18.9961 -15.3443
v 7.7580 18.8994 -11.5529
v 8.1004 18.9063 -8.5327
v 10.4829 18.6552 -6.7367
v 11.8681 18.7256 -5.0084
v 13.6411 19.0697 -3.0499
v 13.3886 22.8905 -0.3546
v 13.2613 22.4590 2.5728
v 12.2926 22.8599 4.9712
v 10.2911 22.7729 7.3099
v 8.6046 22.7122 9.0302
v 6.8731 22.2922 9.9323
v 4.6369 22.7573 11.7914
v 1.8499 22.5545 10.8516
v 0.0069 22.3443 9.1604
v -2.0841 22.4799 9.4198
v -3.5098 22.4243 9.1977
v -6.2764 22.4489 9.8409
v -10.5820 22.8329 10.2500
v -12.1538 22.3102 8.3988
v -12.1689 23.0298 5.2117
v -11.8373 22.5612 2.4356
v -10.7623 22.4349 -0.0873
v -9.6978 22.8495 -2.0935
v -8.7481 22.9042 -3.4490
v -8.3644 22.6066 -5.5615
v -8.0387 22.4787 -7.7341
v -5.5954 22.5712 -8.8608
v -4.4773 23.0788 -10.7213
v -2.5930 22.5938 -12.9689
v -0.3614 22.5580 -13.2147
v 2.5831 22.5926 -13.0932
v 5.0758 22.7150 -11.4557
v 6.3444 22.7859 -9.6277
v 7.0759 22.7022 -6.9062
v 8.1020 22.7605 -5.4660
v 9.2240 23.0573 -3.7877
v 10.8121 22.9075 -2.1193
v 9.9120 25.6808 0.2970
v 11.1561 25.9417 1.9640
v 9.6769 25.7648 3.9910
v 7.9092 25.4737 5.5957
v 7.5592 25.8133 7.1941
v 5.4693 26.1849 8.0102
v 3.5536 25.7274 9.0072
v 1.4718 25.8318 7.7191
v -0.1948 25.8918 6.9729
v -1.3495 25.4589 6.5209
v -2.5981 25.9040 6.4418
v -4.8665 25.9912 7.5208
v -7.2060 26.0596 7.4668
v -10.1259 25.9475 6.8081
v -10.0126 25.5624 4.4809
v -10.1594 25.9639 2.0622
v -8.1153 25.6309 0.2141
v -6.8407 26.0310 -1.4507
v -6.3088 26.0806 -2.6642
v -7.0985 25.4125 -4.5144
v -6.2621 25.8745 -6.0721
v -4.7014 26.1651 -7.1330
v -3.2635 26.1305 -7.9587
v -2.2139 26.0426 -10.6255
v -0.0963 26.1315 -10.5022
v 2.0192 25.6125 -11.0446
v 4.0177 25.4666 -10.1165
v 4.3782 25.4831 -6.8797
v 5.5444 26.0883 -5.5528
v 5.3218 25.7733 -3.4505
v 7.3373 25.4152 -2.8211
v 8.5980 25.5312 -1.4847
v 7.3874 27.8836 -0.0587
v 8.1318 28.2765 1.6027
v 8.4611 27.7225 3.3301
v 6.4652 27.8111 4.2584
v 5.5763 28.2578 5.7540
v 4.0349 27.7990 6.0278
v 3.0996 28.2330 6.9224
v 0.9726 28.2344 5.1339
v 0.1639 27.8356 5.6539
v -0.7077 27.6221 3.5833
v -1.9107 27.9473 4.5064
v -4.2417 27.8034 6.5161
v -6.4672 27.6972 6.4729
v -9.1387 27.6433 5.9881
v -8.4819 27.8902 3.3305
v -7.4288 27.6245 1.6876
v -6.9177 28.2685 0.1868
v -5.3384 27.5825 -0.9325
v -5.7732 27.8801 -2.4026
v -4.5943 27.6560 -3.1248
v -3.8451 27.7894 -3.8078
v -3.6700 28.0400 -5.4288
v -2.8972 27.9834 -7.1767
v -1.2866 27.8786 -6.9205
v -0.0925 28.3100 -8.7515
v 1.6744 27.7986 -9.2578
v 3.1794 28.1308 -8.3314
v 3.2618 27.9066 -5.0956
v 2.9313 28.1380 -2.9138
v 3.5224 27.9448 -2.2215
v 4.1568 27.9055 -1.7934
v 6.4875 28.2994 -1.2092
v 6.6733 30.4062 -0.0007
v 7.2329 30.5557 1.2701
v 5.6706 30.6277 2.4995
v 4.7331 30.6445 3.3081
v 3.5921 30.3525 3.5474
v 3.4262 30.2276 5.1146
v 1.9735 30.7906 4.9271
v 0.8906 30.2572 4.0676
v -0.0409 30.4049 2.9977
v -0.6715 30.5968 3.2970
v -0.9698 30.7632 2.4130
v -2.9508 30.7502 4.4123
v -5.6959 30.4876 5.4409
v -6.4063 30.8097 4.3241
v -6.4588 30.6757 2.7285
v -4.8649 30.8403 1.0446
v -4.2351 30.2932 0.0461
v -3.9795 30.5104 -0.7369
v -3.0575 30.2076 -1.3488
v -2.7484 30.7780 -1.8475
v -3.0937 30.3350 -3.0729
v -2.3972 30.4137 -3.4926
v -2.2132 30.1846 -5.2911
v -1.1631 30.8473 -5.6520
v 0.1954 30.2996 -7.8689
v 1.6662 30.6575 -7.2885
v 2.3639 30.4093 -5.6826
v 2.2736 30.4177 -3.3959
v 1.8569 30.4778 -1.9358
v 1.4397 30.5371 -1.0047
v 2.7002 30.4527 -1.1213
v 3.4660 30.4544 -0.7146
v 3.6389 33.1997 -0.0127
v 3.7178 33.1994 0.6294
v 3.2901 33.3107 1.2798
v 3.0865 33.2356 1.9713
v 2.4167 33.2304 2.3425
v 2.0133 33.2688 3.0255
v 1.1542 33.3241 2.7703
v 0.6408 33.2464 2.8708
v -0.0240 33.2820 2.3218
v -0.4342 33.3225 2.2885
v -1.1122 33.2676 2.6262
v -1.8366 33.2951 2.9247
v -2.6294 33.2638 2.7582
v -3.5904 33.2076 2.3463
v -3.8029 33.2975 1.4778
v -3.0707 33.2639 0.5700
v -2.7876 33.3049 -0.0354
v -2.8280 33.2946 -0.4779
v -2.5665 33.1970 -1.1279
v -2.6373 33.3128 -1.7435
v -1.9626 33.2354 -1.8885
v -1.5930 33.3213 -2.3659
v -1.2829 33.2781 -3.0959
v -0.6199 33.3017 -3.1166
v -0.0272 33.2224 -3.6961
v 0.9475 33.2927 -4.1382
v 1.4205 33.3006 -3.5915
v 1.7529 33.2186 -2.6200
v 1.6938 33.2319 -1.6008
v 2.1218 33.3248 -1.3912
v 2.3430 33.3305 -0.9978
v 2.9786 33.2167 -0.5007
v 2.1834 34.8292 -0.0097
v 2.0588 34.8628 0.4217
v 2.0675 34.8479 0.8030
v 1.9589 34.9415 1.2944
v 1.2930 34.9129 1.2292
v 0.9842 34.9700 1.4879
v 0.6122 34.9083 1.4479
v 0.2773 34.8489 1.4079
v -0.0205 34.8432 1.4285
v -0.1867 34.9299 0.9730
v -0.4157 34.9728 1.0220
v -0.9915 34.9180 1.5530
v -1.7210 34.8368 1.7631
v -1.9849 34.8678 1.3187
v -2.4650 34.8709 0.9814
v -1.7634 34.8951 0.3854
v -1.4374 34.9615 0.0411
v -1.0961 34.8585 -0.2342
v -1.1101 34.9240 -0.4817
v -1.2217 34.8238 -0.7877
v -0.9250 34.8587 -0.9021
v -0.9288 34.8838 -1.4060
v -0.5762 34.8594 -1.4469
v -0.3782 34.9539 -1.7407
v 0.0592 34.9352 -2.5826
v 0.4703 34.8256 -2.5790
v 0.9159 34.8898 -2.1969
v 0.8964 34.9163 -1.3885
v 0.7540 34.8757 -0.7498
v 0.5262 34.9709 -0.3622
v 1.1573 34.9625 -0.5034
v 1.8089 34.8673 -0.3962
v 1.0357 35.7940 0.0167
v 1.4594 35.7662 0.2729
v 1.1667 35.8126 0.4470
v 0.6648 35.7353 0.4605
v 0.5639 35.6979 0.5579
v 0.5504 35.7846 0.8172
v 0.4398 35.7038 0.9974
v 0.0678 35.7497 0.3519
v 0.0019 35.7015 0.4824
v 0.0147 35.6819 -0.0711
v -0.2165 35.7058 0.5170
v -0.3705 35.6882 0.5330
v -0.9218 35.7218 0.9713
v -1.2376 35.7753 0.8544
v -1.2835 35.7438 0.5101
v -0.9805 35.7530 0.2174
v -0.7050 35.7009 -0.0076
v -0.4089 35.8113 -0.0707
v -0.0842 35.7567 -0.0337
v -0.6308 35.7796 -0.4069
v -0.2703 35.7820 -0.2748
v -0.3339 35.6858 -0.4898
v -0.3958 35.7816 -0.8996
v -0.2009 35.7094 -0.8750
v 0.0216 35.7131 -1.2960
v 0.2494 35.7676 -1.4169
v 0.4598 35.8074 -1.1285
v 0.2869 35.7012 -0.4127
v 0.1666 35.6866 -0.1645
v -0.2904 35.7443 0.2001
v 0.3509 35.7900 -0.1489
v 0.4448 35.7953 -0.0851
v -0.0840 36.5832 0.0168
v 29.0511 0.2162 -0.2144
v 29.5991 0.2529 6.0155
v 28.7100 2.6942 5.5600
v 27.0331 4.1134 4.4159
v 26.7642 4.6864 -0.0589
v 25.9315 4.0781 -4.3089
v 26.9185 2.5923 -4.8227
v 28.3331 0.3559 -5.7195
v 21.4856 0.5379 -0.8496
v 22.1308 0.7653 11.4742
v 20.9041 2.0672 10.4220
v 18.4092 5.0021 7.9901
v 17.9643 6.3312 -0.0622
v 16.8282 4.8010 -8.1146
v 18.4847 2.0601 -9.4111
v 20.3284 0.5159 -10.9073
v 15.6058 4.4538 0.0922
v 17.1596 4.6164 -7.1355
v 16.7335 4.8537 -8.3943
v 16.8282 5.0467 -8.0682
v 16.5910 4.7864 -8.0370
v 16.8282 4.5553 -8.1609
v 17.0654 4.8156 -8.1921
v 20.7740 2.1861 9.3869
v 20.9413 2.0332 10.7178
v 20.9041 1.8188 10.3935
v 20.6560 2.0637 10.4528
v 20.9041 2.3156 10.4506
v 21.1522 2.0707 10.3913
v 17.9643 5.4212 -0.0622
v 17.9643 6.5912 -0.0622
v 17.9643 6.3312 0.1378
v 17.7643 6.3312 -0.0622
v 17.9643 6.3312 -0.2622
v 18.1643 6.3312 -0.0622
v 35.9082 1.0379 -7.8437
v 35.9796 -0.5731 -8.1922
v 36.7728 0.2067 -7.8660
v 35.9852 0.3063 -6.8490
v 34.8242 0.2889 -8.0659
v 35.6652 0.0600 -8.9161
v 35.1315 0.5173 -7.6018
v 35.2637 -0.3727 -7.6245
v 35.7538 0.0460 -7.4669
v 35.1824 0.0343 -6.8238
v 34.5487 0.1788 -7.5098
v 35.1484 0.1163 -8.1713
v 37.4572 0.8089 8.4848
v 37.6906 -0.3224 8.4662
v 38.4392 0.3269 8.5187
v 37.6708 0.2636 9.4245
v 36.6105 0.2505 8.5494
v 37.6024 0.2988 7.6315
v 37.1261 0.5738 7.8469
v 37.1300 -0.4640 7.7739
v 37.6289 0.0735 7.8630
v 37.1153 0.1270 8.4212
v 36.3181 0.1600 7.8322
v 37.1062 0.0181 7.3499

usemtl mat_rock
f 1 2 34
f 1 34 33
f 2 3 35
f 2 35 34
f 3 4 36
f 3 36 35
f 4 5 37
f 4 37 36
f 5 6 38
f 5 38 37
f 6 7 39
f 6 39 38
f 7 8 40
f 7 40 39
f 8 9 41
f 8 41 40
f 9 10 42
f 9 42 41
f 10 11 43
f 10 43 42
f 11 12 44
f 11 44 43
f 12 13 45
f 12 45 44
f 13 14 46
f 13 46 45
f 14 15 47
f 14 47 46
f 15 16 48
f 15 48 47
f 16 17 49
f 16 49 48
f 17 18 50
f 17 50 49
f 18 19 51
f 18 51 50
f 19 20 52
f 19 52 51
f 20 21 53
f 20 53 52
f 21 22 54
f 21 54 53
f 22 23 55
f 22 55 54
f 23 24 56
f 23 56 55
f 24 25 57
f 24 57 56
f 25 26 58
f 25 58 57
f 26 27 59
f 26 59 58
f 27 28 60
f 27 60 59
f 28 29 61
f 28 61 60
f 29 30 62
f 29 62 61
f 30 31 63
f 30 63 62
f 31 32 64
f 31 64 63
f 32 1 33
f 32 33 64
f 34 35 67
f 34 67 66
f 35 36 68
f 35 68 67
f 36 37 69
f 36 69 68
f 37 38 70
f 37 70 69
f 38 39 71
f 38 71 70
f 39 40 72
f 39 72 71
f 40 41 73
f 40 73 72
f 41 42 74
f 41 74 73
f 42 43 75
f 42 75 74
f 43 44 76
f 43 76 75
f 44 45 77
f 44 77 76
f 45 46 78
f 45 78 77
f 46 47 79
f 46 79 78
f 47 48 80
f 47 80 79
f 48 49 81
f 48 81 80
f 49 50 82
f 49 82 81
f 50 51 83
f 50 83 82
f 51 52 84
f 51 84 83
f 52 53 85
f 52 85 84
f 53 54 86
f 53 86 85
f 54 55 87
f 54 87 86
f 55 56 88
f 55 88 87
f 56 57 89
f 56 89 88
f 57 58 90
f 57 90 89
f 58 59 91
f 58 91 90
f 59 60 92
f 59 92 91
f 60 61 93
f 60 93 92
f 61 62 94
f 61 94 93
f 62 63 95
f 62 95 94
f 63 64 96
f 63 96 95
f 66 67 99
f 66 99 98
f 67 68 100
f 67 100 99
f 68 69 101
f 68 101 100
f 69 70 102
f 69 102 101
f 70 71 103
f 70 103 102
f 71 72 104
f 71 104 103
f 72 73 105
f 72 105 104
f 73 74 106
f 73 106 105
f 74 75 107
f 74 107 106
f 75 76 108
f 75 108 107
f 76 77 109
f 76 109 108
f 77 78 110
f 77 110 109
f 78 79 111
f 78 111 110
f 79 80 112
f 79 112 111
f 80 81 113
f 80 113 112
f 81 82 114
f 81 114 113
f 82 83 115
f 82 115 114
f 83 84 116
f 83 116 115
f 84 85 117
f 84 117 116
f 85 86 118
f 85 118 117
f 86 87 119
f 86 119 118
f 87 88 120
f 87 120 119
f 88 89 121
f 88 121 120
f 89 90 122
f 89 122 121
f 90 91 123
f 90 123 122
f 91 92 124
f 91 124 123
f 92 93 125
f 92 125 124
f 93 94 126
f 93 126 125
f 94 95 127
f 94 127 126
f 95 96 128
f 95 128 127
f 97 98 130
f 97 130 129
f 98 99 131
f 98 131 130
f 99 100 132
f 99 132 131
f 100 101 133
f 100 133 132
f 101 102 134
f 101 134 133
f 102 103 135
f 102 135 134
f 103 104 136
f 103 136 135
f 104 105 137
f 104 137 136
f 105 106 138
f 105 138 137
f 106 107 139
f 106 139 138
f 107 108 140
f 107 140 139
f 108 109 141
f 108 141 140
f 109 110 142
f 109 142 141
f 110 111 143
f 110 143 142
f 111 112 144
f 111 144 143
f 112 113 145
f 112 145 144
f 113 114 146
f 113 146 145
f 114 115 147
f 114 147 146
f 115 116 148
f 115 148 147
f 116 117 149
f 116 149 148
f 117 118 150
f 117 150 149
f 118 119 151
f 118 151 150
f 119 120 152
f 119 152 151
f 120 121 153
f 120 153 152
f 121 122 154
f 121 154 153
f 122 123 155
f 122 155 154
f 123 124 156
f 123 156 155
f 124 125 157
f 124 157 156
f 125 126 158
f 125 158 157
f 126 127 159
f 126 159 158
f 127 128 160
f 127 160 159
f 128 97 129
f 128 129 160
f 129 130 162
f 129 162 161
f 130 131 163
f 130 163 162
f 131 132 164
f 131 164 163
f 132 133 165
f 132 165 164
f 133 134 166
f 133 166 165
f 134 135 167
f 134 167 166
f 135 136 168
f 135 168 167
f 136 137 169
f 136 169 168
f 137 138 170
f 137 170 169
f 138 139 171
f 138 171 170
f 139 140 172
f 139 172 171
f 140 141 173
f 140 173 172
f 141 142 174
f 141 174 173
f 142 143 175
f 142 175 174
f 143 144 176
f 143 176 175
f 144 145 177
f 144 177 176
f 145 146 178
f 145 178 177
f 146 147 179
f 146 179 178
f 147 148 180
f 147 180 179
f 148 149 181
f 148 181 180
f 149 150 182
f 149 182 181
f 150 151 183
f 150 183 182
f 151 152 184
f 151 184 183
f 152 153 185
f 152 185 184
f 153 154 186
f 153 186 185
f 154 155 187
f 154 187 186
f 155 156 188
f 155 188 187
f 156 157 189
f 156 189 188
f 157 158 190
f 157 190 189
f 158 159 191
f 158 191 190
f 159 160 192
f 159 192 191
f 160 129 161
f 160 161 192
f 161 162 194
f 161 194 193
f 162 163 195
f 162 195 194
f 163 164 196
f 163 196 195
f 164 165 197
f 164 197 196
f 165 166 198
f 165 198 197
f 166 167 199
f 166 199 198
f 167 168 200
f 167 200 199
f 168 169 201
f 168 201 200
f 169 170 202
f 169 202 201
f 170 171 203
f 170 203 202
f 171 172 204
f 171 204 203
f 172 173 205
f 172 205 204
f 173 174 206
f 173 206 205
f 174 175 207
f 174 207 206
f 175 176 208
f 175 208 207
f 176 177 209
f 176 209 208
f 177 178 210
f 177 210 209
f 178 179 211
f 178 211 210
f 179 180 212
f 179 212 211
f 180 181 213
f 180 213 212
f 181 182 214
f 181 214 213
f 182 183 215
f 182 215 214
f 183 184 216
f 183 216 215
f 184 185 217
f 184 217 216
f 185 186 218
f 185 218 217
f 186 187 219
f 186 219 218
f 187 188 220
f 187 220 219
f 188 189 221
f 188 221 220
f 189 190 222
f 189 222 221
f 190 191 223
f 190 223 222
f 191 192 224
f 191 224 223
f 192 161 193
f 192 193 224
f 193 194 226
f 193 226 225
f 194 195 227
f 194 227 226
f 195 196 228
f 195 228 227
f 196 197 229
f 196 229 228
f 197 198 230
f 197 230 229
f 198 199 231
f 198 231 230
f 199 200 232
f 199 232 231
f 200 201 233
f 200 233 232
f 201 202 234
f 201 234 233
f 202 203 235
f 202 235 234
f 203 204 236
f 203 236 235
f 204 205 237
f 204 237 236
f 205 206 238
f 205 238 237
f 206 207 239
f 206 239 238
f 207 208 240
f 207 240 239
f 208 209 241
f 208 241 240
f 209 210 242
f 209 242 241
f 210 211 243
f 210 243 242
f 211 212 244
f 211 244 243
f 212 213 245
f 212 245 244
f 213 214 246
f 213 246 245
f 214 215 247
f 214 247 246
f 215 216 248
f 215 248 247
f 216 217 249
f 216 249 248
f 217 218 250
f 217 250 249
f 218 219 251
f 218 251 250
f 219 220 252
f 219 252 251
f 220 221 253
f 220 253 252
f 221 222 254
f 221 254 253
f 222 223 255
f 222 255 254
f 223 224 256
f 223 256 255
f 224 193 225
f 224 225 256
f 225 226 258
f 225 258 257
f 226 227 259
f 226 259 258
f 227 228 260
f 227 260 259
f 228 229 261
f 228 261 260
f 229 230 262
f 229 262 261
f 230 231 263
f 230 263 262
f 231 232 264
f 231 264 263
f 232 233 265
f 232 265 264
f 233 234 266
f 233 266 265
f 234 235 267
f 234 267 266
f 235 236 268
f 235 268 267
f 236 237 269
f 236 269 268
f 237 238 270
f 237 270 269
f 238 239 271
f 238 271 270
f 239 240 272
f 239 272 271
f 240 241 273
f 240 273 272
f 241 242 274
f 241 274 273
f 242 243 275
f 242 275 274
f 243 244 276
f 243 276 275
f 244 245 277
f 244 277 276
f 245 246 278
f 245 278 277
f 246 247 279
f 246 279 278
f 247 248 280
f 247 280 279
f 248 249 281
f 248 281 280
f 249 250 282
f 249 282 281
f 250 251 283
f 250 283 282
f 251 252 284
f 251 284 283
f 252 253 285
f 252 285 284
f 253 254 286
f 253 286 285
f 254 255 287
f 254 287 286
f 255 256 288
f 255 288 287
f 256 225 257
f 256 257 288
f 257 258 290
f 257 290 289
f 258 259 291
f 258 291 290
f 259 260 292
f 259 292 291
f 260 261 293
f 260 293 292
f 261 262 294
f 261 294 293
f 262 263 295
f 262 295 294
f 263 264 296
f 263 296 295
f 264 265 297
f 264 297 296
f 265 266 298
f 265 298 297
f 266 267 299
f 266 299 298
f 267 268 300
f 267 300 299
f 268 269 301
f 268 301 300
f 269 270 302
f 269 302 301
f 270 271 303
f 270 303 302
f 271 272 304
f 271 304 303
f 272 273 305
f 272 305 304
f 273 274 306
f 273 306 305
f 274 275 307
f 274 307 306
f 275 276 308
f 275 308 307
f 276 277 309
f 276 309 308
f 277 278 310
f 277 310 309
f 278 279 311
f 278 311 310
f 279 280 312
f 279 312 311
f 280 281 313
f 280 313 312
f 281 282 314
f 281 314 313
f 282 283 315
f 282 315 314
f 283 284 316
f 283 316 315
f 284 285 317
f 284 317 316
f 285 286 318
f 285 318 317
f 286 287 319
f 286 319 318
f 287 288 320
f 287 320 319
f 288 257 289
f 288 289 320
f 289 290 322
f 289 322 321
f 290 291 323
f 290 323 322
f 291 292 324
f 291 324 323
f 292 293 325
f 292 325 324
f 293 294 326
f 293 326 325
f 294 295 327
f 294 327 326
f 295 296 328
f 295 328 327
f 296 297 329
f 296 329 328
f 297 298 330
f 297 330 329
f 298 299 331
f 298 331 330
f 299 300 332
f 299 332 331
f 300 301 333
f 300 333 332
f 301 302 334
f 301 334 333
f 302 303 335
f 302 335 334
f 303 304 336
f 303 336 335
f 304 305 337
f 304 337 336
f 305 306 338
f 305 338 337
f 306 307 339
f 306 339 338
f 307 308 340
f 307 340 339
f 308 309 341
f 308 341 340
f 309 310 342
f 309 342 341
f 310 311 343
f 310 343 342
f 311 312 344
f 311 344 343
f 312 313 345
f 312 345 344
f 313 314 346
f 313 346 345
f 314 315 347
f 314 347 346
f 315 316 348
f 315 348 347
f 316 317 349
f 316 349 348
f 317 318 350
f 317 350 349
f 318 319 351
f 318 351 350
f 319 320 352
f 319 352 351
f 320 289 321
f 320 321 352
f 321 322 354
f 321 354 353
f 322 323 355
f 322 355 354
f 323 324 356
f 323 356 355
f 324 325 357
f 324 357 356
f 325 326 358
f 325 358 357
f 326 327 359
f 326 359 358
f 327 328 360
f 327 360 359
f 328 329 361
f 328 361 360
f 329 330 362
f 329 362 361
f 330 331 363
f 330 363 362
f 331 332 364
f 331 364 363
f 332 333 365
f 332 365 364
f 333 334 366
f 333 366 365
f 334 335 367
f 334 367 366
f 335 336 368
f 335 368 367
f 336 337 369
f 336 369 368
f 337 338 370
f 337 370 369
f 338 339 371
f 338 371 370
f 339 340 372
f 339 372 371
f 340 341 373
f 340 373 372
f 341 342 374
f 341 374 373
f 342 343 375
f 342 375 374
f 343 344 376
f 343 376 375
f 344 345 377
f 344 377 376
f 345 346 378
f 345 378 377
f 346 347 379
f 346 379 378
f 347 348 380
f 347 380 379
f 348 349 381
f 348 381 380
f 349 350 382
f 349 382 381
f 350 351 383
f 350 383 382
f 351 352 384
f 351 384 383
f 352 321 353
f 352 353 384
f 549 552 551
f 549 553 552
f 549 554 553
f 549 551 554
f 550 551 552
f 550 552 553
f 550 553 554
f 550 554 551
f 555 558 557
f 555 559 558
f 555 560 559
f 555 557 560
f 556 557 558
f 556 558 559
f 556 559 560
f 556 560 557
f 561 564 563
f 561 565 564
f 561 566 565
f 561 563 566
f 562 563 564
f 562 564 565
f 562 565 566
f 562 566 563
f 567 570 569
f 567 571 570
f 567 572 571
f 567 569 572
f 568 569 570
f 568 570 571
f 568 571 572
f 568 572 569

usemtl mat_snow
f 353 354 386
f 353 386 385
f 354 355 387
f 354 387 386
f 355 356 388
f 355 388 387
f 356 357 389
f 356 389 388
f 357 358 390
f 357 390 389
f 358 359 391
f 358 391 390
f 359 360 392
f 359 392 391
f 360 361 393
f 360 393 392
f 361 362 394
f 361 394 393
f 362 363 395
f 362 395 394
f 363 364 396
f 363 396 395
f 364 365 397
f 364 397 396
f 365 366 398
f 365 398 397
f 366 367 399
f 366 399 398
f 367 368 400
f 367 400 399
f 368 369 401
f 368 401 400
f 369 370 402
f 369 402 401
f 370 371 403
f 370 403 402
f 371 372 404
f 371 404 403
f 372 373 405
f 372 405 404
f 373 374 406
f 373 406 405
f 374 375 407
f 374 407 406
f 375 376 408
f 375 408 407
f 376 377 409
f 376 409 408
f 377 378 410
f 377 410 409
f 378 379 411
f 378 411 410
f 379 380 412
f 379 412 411
f 380 381 413
f 380 413 412
f 381 382 414
f 381 414 413
f 382 383 415
f 382 415 414
f 383 384 416
f 383 416 415
f 384 353 385
f 384 385 416
f 385 386 418
f 385 418 417
f 386 387 419
f 386 419 418
f 387 388 420
f 387 420 419
f 388 389 421
f 388 421 420
f 389 390 422
f 389 422 421
f 390 391 423
f 390 423 422
f 391 392 424
f 391 424 423
f 392 393 425
f 392 425 424
f 393 394 426
f 393 426 425
f 394 395 427
f 394 427 426
f 395 396 428
f 395 428 427
f 396 397 429
f 396 429 428
f 397 398 430
f 397 430 429
f 398 399 431
f 398 431 430
f 399 400 432
f 399 432 431
f 400 401 433
f 400 433 432
f 401 402 434
f 401 434 433
f 402 403 435
f 402 435 434
f 403 404 436
f 403 436 435
f 404 405 437
f 404 437 436
f 405 406 438
f 405 438 437
f 406 407 439
f 406 439 438
f 407 408 440
f 407 440 439
f 408 409 441
f 408 441 440
f 409 410 442
f 409 442 441
f 410 411 443
f 410 443 442
f 411 412 444
f 411 444 443
f 412 413 445
f 412 445 444
f 413 414 446
f 413 446 445
f 414 415 447
f 414 447 446
f 415 416 448
f 415 448 447
f 416 385 417
f 416 417 448
f 417 418 450
f 417 450 449
f 418 419 451
f 418 451 450
f 419 420 452
f 419 452 451
f 420 421 453
f 420 453 452
f 421 422 454
f 421 454 453
f 422 423 455
f 422 455 454
f 423 424 456
f 423 456 455
f 424 425 457
f 424 457 456
f 425 426 458
f 425 458 457
f 426 427 459
f 426 459 458
f 427 428 460
f 427 460 459
f 428 429 461
f 428 461 460
f 429 430 462
f 429 462 461
f 430 431 463
f 430 463 462
f 431 432 464
f 431 464 463
f 432 433 465
f 432 465 464
f 433 434 466
f 433 466 465
f 434 435 467
f 434 467 466
f 435 436 468
f 435 468 467
f 436 437 469
f 436 469 468
f 437 438 470
f 437 470 469
f 438 439 471
f 438 471 470
f 439 440 472
f 439 472 471
f 440 441 473
f 440 473 472
f 441 442 474
f 441 474 473
f 442 443 475
f 442 475 474
f 443 444 476
f 443 476 475
f 444 445 477
f 444 477 476
f 445 446 478
f 445 478 477
f 446 447 479
f 446 479 478
f 447 448 480
f 447 480 479
f 448 417 449
f 448 449 480
f 449 450 482
f 449 482 481
f 450 451 483
f 450 483 482
f 451 452 484
f 451 484 483
f 452 453 485
f 452 485 484
f 453 454 486
f 453 486 485
f 454 455 487
f 454 487 486
f 455 456 488
f 455 488 487
f 456 457 489
f 456 489 488
f 457 458 490
f 457 490 489
f 458 459 491
f 458 491 490
f 459 460 492
f 459 492 491
f 460 461 493
f 460 493 492
f 461 462 494
f 461 494 493
f 462 463 495
f 462 495 494
f 463 464 496
f 463 496 495
f 464 465 497
f 464 497 496
f 465 466 498
f 465 498 497
f 466 467 499
f 466 499 498
f 467 468 500
f 467 500 499
f 468 469 501
f 468 501 500
f 469 470 502
f 469 502 501
f 470 471 503
f 470 503 502
f 471 472 504
f 471 504 503
f 472 473 505
f 472 505 504
f 473 474 506
f 473 506 505
f 474 475 507
f 474 507 506
f 475 476 508
f 475 508 507
f 476 477 509
f 476 509 508
f 477 478 510
f 477 510 509
f 478 479 511
f 478 511 510
f 479 480 512
f 479 512 511
f 480 449 481
f 480 481 512
f 481 482 513
f 482 483 513
f 483 484 513
f 484 485 513
f 485 486 513
f 486 487 513
f 487 488 513
f 488 489 513
f 489 490 513
f 490 491 513
f 491 492 513
f 492 493 513
f 493 494 513
f 494 495 513
f 495 496 513
f 496 497 513
f 497 498 513
f 498 499 513
f 499 500 513
f 500 501 513
f 501 502 513
f 502 503 513
f 503 504 513
f 504 505 513
f 505 506 513
f 506 507 513
f 507 508 513
f 508 509 513
f 509 510 513
f 510 511 513
f 511 512 513
f 512 481 513

usemtl mat_cave_floor
f 514 34 33
f 514 515 34
f 521 33 64
f 521 514 33
f 522 515 514
f 522 523 515
f 529 514 521
f 529 522 514
f 530 523 522
f 530 522 529

usemtl mat_cave_rock
f 515 66 34
f 515 516 66
f 516 98 66
f 516 517 98
f 517 97 98
f 517 518 97
f 518 128 97
f 518 519 128
f 519 96 128
f 519 520 96
f 520 64 96
f 520 521 64
f 523 516 515
f 523 524 516
f 524 517 516
f 524 525 517
f 525 518 517
f 525 526 518
f 526 519 518
f 526 527 519
f 527 520 519
f 527 528 520
f 528 521 520
f 528 529 521
f 530 524 523
f 530 525 524
f 530 526 525
f 530 527 526
f 530 528 527
f 530 529 528

usemtl mat_crystal
f 531 534 533
f 531 535 534
f 531 536 535
f 531 533 536
f 532 533 534
f 532 534 535
f 532 535 536
f 532 536 533
f 537 540 539
f 537 541 540
f 537 542 541
f 537 539 542
f 538 539 540
f 538 540 541
f 538 541 542
f 538 542 539
f 543 546 545
f 543 547 546
f 543 548 547
f 543 545 548
f 544 545 546
f 544 546 547
f 544 547 548
f 544 548 545

